<svg id="visual" viewBox="0 0 960 540" width="960" height="540" xmlns="http://www.w3.org/2000/svg" xmlns:xlink="http://www.w3.org/1999/xlink" version="1.1"><rect x="0" y="0" width="960" height="540" fill="#212121"></rect><path d="M0 325L17.8 334.8C35.7 344.7 71.3 364.3 106.8 367C142.3 369.7 177.7 355.3 213.2 352.5C248.7 349.7 284.3 358.3 320 371.3C355.7 384.3 391.3 401.7 426.8 395.5C462.3 389.3 497.7 359.7 533.2 344C568.7 328.3 604.3 326.7 640 338.5C675.7 350.3 711.3 375.7 746.8 387.5C782.3 399.3 817.7 397.7 853.2 388.8C888.7 380 924.3 364 942.2 356L960 348L960 541L942.2 541C924.3 541 888.7 541 853.2 541C817.7 541 782.3 541 746.8 541C711.3 541 675.7 541 640 541C604.3 541 568.7 541 533.2 541C497.7 541 462.3 541 426.8 541C391.3 541 355.7 541 320 541C284.3 541 248.7 541 213.2 541C177.7 541 142.3 541 106.8 541C71.3 541 35.7 541 17.8 541L0 541Z" fill="#4e2aa4"></path><path d="M0 406L17.8 412.3C35.7 418.7 71.3 431.3 106.8 437C142.3 442.7 177.7 441.3 213.2 433.8C248.7 426.3 284.3 412.7 320 411.7C355.7 410.7 391.3 422.3 426.8 425.5C462.3 428.7 497.7 423.3 533.2 415.2C568.7 407 604.3 396 640 398.7C675.7 401.3 711.3 417.7 746.8 420.3C782.3 423 817.7 412 853.2 401.7C888.7 391.3 924.3 381.7 942.2 376.8L960 372L960 541L942.2 541C924.3 541 888.7 541 853.2 541C817.7 541 782.3 541 746.8 541C711.3 541 675.7 541 640 541C604.3 541 568.7 541 533.2 541C497.7 541 462.3 541 426.8 541C391.3 541 355.7 541 320 541C284.3 541 248.7 541 213.2 541C177.7 541 142.3 541 106.8 541C71.3 541 35.7 541 17.8 541L0 541Z" fill="#6343b0"></path><path d="M0 423L17.8 433.3C35.7 443.7 71.3 464.3 106.8 468.5C142.3 472.7 177.7 460.3 213.2 450.5C248.7 440.7 284.3 433.3 320 429.3C355.7 425.3 391.3 424.7 426.8 426.7C462.3 428.7 497.7 433.3 533.2 441.5C568.7 449.7 604.3 461.3 640 462.2C675.7 463 711.3 453 746.8 452.7C782.3 452.3 817.7 461.7 853.2 460.3C888.7 459 924.3 447 942.2 441L960 435L960 541L942.2 541C924.3 541 888.7 541 853.2 541C817.7 541 782.3 541 746.8 541C711.3 541 675.7 541 640 541C604.3 541 568.7 541 533.2 541C497.7 541 462.3 541 426.8 541C391.3 541 355.7 541 320 541C284.3 541 248.7 541 213.2 541C177.7 541 142.3 541 106.8 541C71.3 541 35.7 541 17.8 541L0 541Z" fill="#775bbc"></path><path d="M0 503L17.8 501.2C35.7 499.3 71.3 495.7 106.8 496.8C142.3 498 177.7 504 213.2 499.8C248.7 495.7 284.3 481.3 320 473.8C355.7 466.3 391.3 465.7 426.8 471.7C462.3 477.7 497.7 490.3 533.2 490.8C568.7 491.3 604.3 479.7 640 481.3C675.7 483 711.3 498 746.8 498.2C782.3 498.3 817.7 483.7 853.2 483.3C888.7 483 924.3 497 942.2 504L960 511L960 541L942.2 541C924.3 541 888.7 541 853.2 541C817.7 541 782.3 541 746.8 541C711.3 541 675.7 541 640 541C604.3 541 568.7 541 533.2 541C497.7 541 462.3 541 426.8 541C391.3 541 355.7 541 320 541C284.3 541 248.7 541 213.2 541C177.7 541 142.3 541 106.8 541C71.3 541 35.7 541 17.8 541L0 541Z" fill="#8b72c7"></path></svg>